nColumns=19
nRows=93
DataType=double
version=3
OpenSimVersion=4.1
endheader
time	ground_force_1_vx	ground_force_1_vy	ground_force_1_vz	ground_force_1_px	ground_force_1_py	ground_force_1_pz	ground_force_1_mx	ground_force_1_my	ground_force_1_mz	ground_force_2_vx	ground_force_2_vy	ground_force_2_vz	ground_force_2_px	ground_force_2_py	ground_force_2_pz	ground_force_2_mx	ground_force_2_my	ground_force_2_mz
0	-45.4858	274.876	14.7943	0.0979093	0.006	-0.228609	0	0.007297	0	0	0	0	0.686839	0	-0.22539	0	0	0
0.01	-55.8753	302.562	12.6995	0.102475	0.006	-0.227947	0	0.046698	0	0	0	0	0.686839	0	-0.22539	0	0	0
0.02	-66.9127	333.881	10.0841	0.107866	0.006	-0.227032	0	0.096769	0	0	0	0	0.686839	0	-0.22539	0	0	0
0.03	-78.2341	368.232	6.91914	0.11315	0.006	-0.225995	0	0.155142	0	0	0	0	0.686839	0	-0.22539	0	0	0
0.04	-89.4442	404.802	3.2214	0.11823	0.006	-0.224873	0	0.218201	0	0	0	0	0.686839	0	-0.22539	0	0	0
0.05	-100.122	442.601	-0.929127	0.123035	0.006	-0.223705	0	0.283879	0	0	0	0	0.686839	0	-0.22539	0	0	0
0.06	-109.851	480.502	-5.3856	0.127519	0.006	-0.222529	0	0.352849	0	0	0	0	0.686839	0	-0.22539	0	0	0
0.07	-118.256	517.346	-9.95906	0.131659	0.006	-0.221379	0	0.426006	0	0	0	0	0.686839	0	-0.22539	0	0	0
0.08	-125.046	552.07	-14.4623	0.135455	0.006	-0.220271	0	0.501329	0	0	0	0	0.686839	0	-0.22539	0	0	0
0.09	-130.029	583.76	-18.7249	0.138928	0.006	-0.219214	0	0.574648	0	0	0	0	0.686839	0	-0.22539	0	0	0
0.1	-133.108	611.638	-22.595	0.14211	0.006	-0.218208	0	0.641393	0	0	0	0	0.686839	0	-0.22539	0	0	0
0.11	-134.274	635.057	-25.9544	0.145043	0.006	-0.217247	0	0.696646	0	0	0	0	0.686839	0	-0.22539	0	0	0
0.12	-133.601	653.518	-28.7296	0.147773	0.006	-0.216318	0	0.735368	0	0	0	0	0.686839	0	-0.22539	0	0	0
0.13	-131.223	666.676	-30.8887	0.150348	0.006	-0.215405	0	0.753555	0	0	0	0	0.686839	0	-0.22539	0	0	0
0.14	-127.326	674.357	-32.4345	0.152815	0.006	-0.214491	0	0.748947	0	0	0	0	0.686839	0	-0.22539	0	0	0
0.15	-122.128	676.584	-33.4039	0.15522	0.006	-0.213555	0	0.720847	0	0	0	0	0.686839	0	-0.22539	0	0	0
0.16	-115.869	673.585	-33.8581	0.157599	0.006	-0.212581	0	0.670202	0	0	0	0	0.686839	0	-0.22539	0	0	0
0.17	-108.797	665.784	-33.8725	0.159985	0.006	-0.211549	0	0.599599	0	0	0	0	0.686839	0	-0.22539	0	0	0
0.18	-101.156	653.785	-33.528	0.162408	0.006	-0.210445	0	0.512805	0	0	0	0	0.686839	0	-0.22539	0	0	0
0.19	-93.1812	638.327	-32.9055	0.164892	0.006	-0.209257	0	0.414282	0	0	0	0	0.686839	0	-0.22539	0	0	0
0.2	-85.0908	620.245	-32.0803	0.167461	0.006	-0.207973	0	0.308664	0	0	0	0	0.686839	0	-0.22539	0	0	0
0.21	-77.0814	600.418	-31.1207	0.170136	0.006	-0.20659	0	0.200111	0	0	0	0	0.686839	0	-0.22539	0	0	0
0.22	-69.3239	579.726	-30.0866	0.172934	0.006	-0.205106	0	0.091678	0	0	0	0	0.686839	0	-0.22539	0	0	0
0.23	-61.9599	559	-29.0315	0.17587	0.006	-0.203525	0	-0.014935	0	0	0	0	0.686839	0	-0.22539	0	0	0
0.24	-55.0992	538.993	-28.0016	0.17895	0.006	-0.201859	0	-0.119325	0	0	0	0	0.686839	0	-0.22539	0	0	0
0.25	-48.8161	520.354	-27.0364	0.182168	0.006	-0.200123	0	-0.222285	0	0	0	0	0.686839	0	-0.22539	0	0	0
0.26	-43.1466	503.613	-26.1672	0.18551	0.006	-0.198343	0	-0.325588	0	0	0	0	0.686839	0	-0.22539	0	0	0
0.27	-38.0865	489.182	-25.4177	0.188942	0.006	-0.196553	0	-0.431788	0	0	0	0	0.686839	0	-0.22539	0	0	0
0.28	-33.5941	477.36	-24.8035	0.19242	0.006	-0.194792	0	-0.543848	0	0	0	0	0.686839	0	-0.22539	0	0	0
0.29	-29.5957	468.342	-24.3335	0.195888	0.006	-0.193103	0	-0.664766	0	0	0	0	0.686839	0	-0.22539	0	0	0
0.3	-25.9924	462.238	-24.0108	0.199288	0.006	-0.191529	0	-0.797334	0	0	0	0	0.686839	0	-0.22539	0	0	0
0.31	-22.6675	459.077	-23.8354	0.202565	0.006	-0.190107	0	-0.943915	0	0	0	0	0.686839	0	-0.22539	0	0	0
0.32	-19.496	458.828	-23.8062	0.205678	0.006	-0.188865	0	-1.10625	0	0	0	0	0.686839	0	-0.22539	0	0	0
0.33	-16.3519	461.408	-23.9212	0.208606	0.006	-0.18782	0	-1.28519	0	0	0	0	0.686839	0	-0.22539	0	0	0
0.34	-13.1166	466.69	-24.1784	0.211348	0.006	-0.186977	0	-1.48063	0	0	0	0	0.686839	0	-0.22539	0	0	0
0.35	-9.68584	474.517	-24.5742	0.213928	0.006	-0.186327	0	-1.69151	0	0	0	0	0.686839	0	-0.22539	0	0	0
0.36	-5.97433	484.702	-25.1011	0.216387	0.006	-0.185853	0	-1.91578	0	0	0	0	0.686839	0	-0.22539	0	0	0
0.37	-1.91941	497.027	-25.7462	0.218775	0.006	-0.185531	0	-2.15016	0	0	0	0	0.686839	0	-0.22539	0	0	0
0.38	2.5178	511.234	-26.4889	0.22115	0.006	-0.185333	0	-2.39015	0	0	0	0	0.686839	0	-0.22539	0	0	0
0.39	7.35434	527.03	-27.301	0.223565	0.006	-0.185231	0	-2.63001	0	0	0	0	0.686839	0	-0.22539	0	0	0
0.4	12.5895	544.081	-28.1475	0.226068	0.006	-0.185198	0	-2.86273	0	0	0	0	0.686839	0	-0.22539	0	0	0
0.41	18.2076	562.015	-28.9887	0.228694	0.006	-0.185208	0	-3.08028	0	0	0	0	0.686839	0	-0.22539	0	0	0
0.42	24.1809	580.413	-29.7838	0.231462	0.006	-0.18524	0	-3.27401	0	0	0	0	0.686839	0	-0.22539	0	0	0
0.43	30.4717	598.813	-30.4934	0.234381	0.006	-0.185276	0	-3.43503	0	0	0	0	0.686839	0	-0.22539	0	0	0
0.44	37.0323	616.709	-31.0814	0.237445	0.006	-0.185303	0	-3.55483	0	0	0	0	0.686839	0	-0.22539	0	0	0
0.45	43.8067	633.56	-31.5138	0.240637	0.006	-0.18531	0	-3.62616	0	0	0	0	0.686839	0	-0.22539	0	0	0
0.46	50.7326	648.809	-31.7579	0.243934	0.006	-0.185291	0	-3.64388	0	0	0	0	0.686839	0	-0.22539	0	0	0
0.47	57.7445	661.893	-31.7811	0.247307	0.006	-0.185246	0	-3.60548	0	0	0	0	0.686839	0	-0.22539	0	0	0
0.48	64.7737	672.261	-31.5522	0.250724	0.006	-0.185176	0	-3.51133	0	0	0	0	0.686839	0	-0.22539	0	0	0
0.49	71.7465	679.38	-31.0431	0.254153	0.006	-0.185085	0	-3.36472	0	0	0	0	0.686839	0	-0.22539	0	0	0
0.5	78.5779	682.749	-30.2312	0.257566	0.006	-0.184979	0	-3.17139	0	0.692322	22.4955	-5.52873	0.686839	0.006	-0.22539	0	0.236649	0
0.51	85.1653	681.915	-29.1012	0.260939	0.006	-0.184865	0	-2.93884	0	-0.822457	37.4175	-6.66923	0.725848	0.006	-0.241485	0	0.342054	0
0.52	91.3829	676.482	-27.6459	0.264252	0.006	-0.184747	0	-2.67587	0	-3.03307	55.6889	-7.92155	0.747236	0.006	-0.249639	0	0.40521	0
0.53	97.0772	666.128	-25.867	0.267492	0.006	-0.184629	0	-2.39197	0	-6.06971	77.362	-9.23895	0.761266	0.006	-0.254475	0	0.450434	0
0.54	102.068	650.613	-23.7781	0.270655	0.006	-0.184514	0	-2.09679	0	-10.062	102.289	-10.5479	0.771639	0.006	-0.25765	0	0.484692	0
0.55	106.156	629.805	-21.407	0.273739	0.006	-0.184402	0	-1.79992	0	-15.0947	130.193	-11.743	0.780004	0.006	-0.259923	0	0.509359	0
0.56	109.127	603.704	-18.7992	0.276753	0.006	-0.184291	0	-1.51041	0	-21.1489	160.774	-12.6963	0.787165	0.006	-0.261697	0	0.524117	0
0.57	110.769	572.461	-16.0214	0.279707	0.006	-0.184177	0	-1.23602	0	-28.1182	193.721	-13.2738	0.793522	0.006	-0.263198	0	0.528176	0
0.58	110.888	536.4	-13.1604	0.282619	0.006	-0.184053	0	-0.982668	0	-35.8212	228.683	-13.3574	0.799263	0.006	-0.264551	0	0.520612	0
0.59	109.332	496.032	-10.3166	0.285512	0.006	-0.183911	0	-0.754432	0	-43.9944	265.245	-12.8654	0.804466	0.006	-0.265821	0	0.500089	0
0.6	106.009	452.064	-7.59435	0.288416	0.006	-0.183742	0	-0.553886	0	-52.3089	302.896	-11.7682	0.80916	0.006	-0.267038	0	0.464612	0
0.61	100.911	405.399	-5.09288	0.291366	0.006	-0.183536	0	-0.382297	0	-60.4189	341.064	-10.0917	0.813372	0.006	-0.268214	0	0.412505	0
0.62	94.1394	357.116	-2.89479	0.294408	0.006	-0.183286	0	-0.239888	0	-68.0102	379.177	-7.90686	0.817137	0.006	-0.269356	0	0.344218	0
0.63	85.9111	308.42	-1.05749	0.297601	0.006	-0.182984	0	-0.125867	0	-74.8145	416.696	-5.31577	0.820498	0.006	-0.270464	0	0.263025	0
0.64	76.5551	260.578	0.390409	0.301021	0.006	-0.182617	0	-0.038003	0	-80.6149	453.098	-2.44072	0.823506	0.006	-0.271539	0	0.174305	0
0.65	66.4945	214.801	1.45155	0.30478	0.006	-0.182167	0	0.026965	0	-85.2525	487.853	0.588982	0.826214	0.006	-0.272582	0	0.084708	0
0.66	56.1986	172.158	2.15631	0.309048	0.006	-0.181598	0	0.072758	0	-88.6361	520.423	3.65265	0.828683	0.006	-0.273595	0	0.001551	0
0.67	46.123	133.488	2.55607	0.314115	0.006	-0.180843	0	0.102878	0	-90.738	550.266	6.65005	0.830975	0.006	-0.274584	0	-0.068086	0
0.68	36.6528	99.3627	2.71321	0.320521	0.006	-0.179776	0	0.120271	0	-91.586	576.835	9.50103	0.833151	0.006	-0.275557	0	-0.118475	0
0.69	28.0716	70.0811	2.68939	0.329377	0.006	-0.17814	0	0.12717	0	-91.2548	599.612	12.1429	0.835269	0.006	-0.27652	0	-0.145753	0
0.7	20.5578	45.6881	2.54032	0.34334	0.006	-0.175317	0	0.124569	0	-89.8515	618.147	14.5263	0.837378	0.006	-0.277481	0	-0.148155	0
0.71	14.1907	26.0011	2.31263	0.370597	0.006	-0.169388	0	0.109807	0	-87.5026	632.112	16.6099	0.839521	0.006	-0.278444	0	-0.125888	0
0.72	0	0	0	0.406951	0	-0.166776	0	0	0	-84.347	641.334	18.3584	0.841735	0.006	-0.27941	0	-0.080647	0
0.73	0	0	0	0.438182	0	-0.1677	0	0	0	-80.5299	645.819	19.7416	0.844055	0.006	-0.280382	0	-0.014924	0
0.74	0	0	0	0.469413	0	-0.168625	0	0	0	-76.1986	645.739	20.7365	0.846515	0.006	-0.281356	0	0.068692	0
0.75	0	0	0	0.500645	0	-0.16955	0	0	0	-71.4981	641.421	21.3318	0.849144	0.006	-0.282332	0	0.168024	0
0.76	0	0	0	0.531876	0	-0.170474	0	0	0	-66.5648	633.324	21.5334	0.851971	0.006	-0.283305	0	0.28158	0
0.77	0	0	0	0.563107	0	-0.171399	0	0	0	-61.5221	622.013	21.3692	0.855019	0.006	-0.284272	0	0.408649	0
0.78	0	0	0	0.594338	0	-0.172324	0	0	0	-56.479	608.141	20.8875	0.858308	0.006	-0.285232	0	0.548949	0
0.79	0	0	0	0.625569	0	-0.173248	0	0	0	-51.5307	592.42	20.1527	0.861853	0.006	-0.286181	0	0.702334	0
0.8	0	0	0	0.656801	0	-0.174173	0	0	0	-46.7587	575.595	19.2368	0.865663	0.006	-0.287114	0	0.868581	0
0.81	0	0	0	0.688032	0	-0.175098	0	0	0	-42.2288	558.416	18.2127	0.869737	0.006	-0.288026	0	1.04727	0
0.82	0	0	0	0.719263	0	-0.176023	0	0	0	-37.9863	541.609	17.148	0.874061	0.006	-0.288907	0	1.23768	0
0.83	0	0	0	0.750494	0	-0.176947	0	0	0	-34.0511	525.848	16.1026	0.878602	0.006	-0.289746	0	1.43867	0
0.84	0	0	0	0.781725	0	-0.177872	0	0	0	-30.4162	511.727	15.1276	0.883311	0.006	-0.290529	0	1.64856	0
0.85	0	0	0	0.812956	0	-0.178797	0	0	0	-27.0482	499.741	14.2659	0.888122	0.006	-0.291242	0	1.8652	0
0.86	0	0	0	0.844188	0	-0.179721	0	0	0	-23.8917	490.271	13.5539	0.892957	0.006	-0.291876	0	2.08612	0
0.87	0	0	0	0.875419	0	-0.180646	0	0	0	-20.8748	483.583	13.0215	0.897736	0.006	-0.292425	0	2.30858	0
0.88	0	0	0	0.90665	0	-0.181571	0	0	0	-17.9141	479.834	12.693	0.902386	0.006	-0.292888	0	2.52961	0
0.89	0	0	0	0.937881	0	-0.182495	0	0	0	-14.9166	479.089	12.5858	0.90684	0.006	-0.293271	0	2.74599	0
0.9	0	0	0	0.969112	0	-0.18342	0	0	0	-11.7831	481.326	12.7073	0.91105	0.006	-0.293582	0	2.95442	0
0.91	0	0	0	1.00034	0	-0.184345	0	0	0	-8.41318	486.454	13.0532	0.91498	0.006	-0.293831	0	3.15178	0
0.92	0	0	0	1.03158	0	-0.185269	0	0	0	-4.71035	494.309	13.6076	0.918614	0.006	-0.29403	0	3.33499	0
